<svg version="1" xmlns="http://www.w3.org/2000/svg" width="2692" height="2692" viewBox="0 0 2019.000000 2019.000000"><path d="M1732.7 26.6c-.1.1-7.4.4-16.2.7-8.8.4-17.1.8-18.5 1.1-1.4.2-5.2.7-8.5 1.1-3.3.4-9.1 1.3-13 2.1-3.8.9-7.7 1.7-8.5 1.9-19.9 4.2-45.5 16.3-57.6 27.2-1.8 1.5-6.4 5.7-10.4 9.3-14.9 13.3-37.7 36.8-60.6 62.6-15.6 17.6-21.1 23.8-24 27.4-1.6 1.9-3.1 3.7-3.4 4-.3.3-3 3.4-6 7s-5.9 7-6.5 7.6c-.5.6-2.6 3.1-4.6 5.5-2 2.4-6.3 7.5-9.5 11.4-3.3 3.8-6.8 8.1-7.9 9.4-1.1 1.4-3.4 4.1-5 6-1.7 2-5.7 7-9 11.1s-6.2 7.7-6.5 8c-.5.4-2.4 2.8-10.7 13-.7.8-11.5 14.4-24 30.1-29.4 36.8-41.6 52.4-68.3 86.9-4.5 5.8-8.9 11.4-9.8 12.5-1 1.1-2.8 3.6-4.2 5.5-1.4 1.9-3 4.2-3.7 5-1.7 2.1-16.9 21.9-28.3 37-5.2 6.9-9.8 12.9-10.3 13.5-.4.5-4.9 6.4-9.8 13-5 6.6-10.1 13.3-11.4 15-1.9 2.3-20.4 27.2-29.9 40-8.9 12-15 20.2-15.7 21.1-.6.8 1.5 4.2 6.4 10 4 4.9 13.1 15.9 20.1 24.4 7.1 8.5 14.5 17.5 16.5 19.9 2 2.5 7 8.5 11.1 13.5s12.7 15.4 19 23.1c6.3 7.7 11.7 14.2 12 14.5.3.3 2.4 2.7 4.5 5.5 2.2 2.7 4.2 5.2 4.5 5.5.3.3 3.7 4.3 7.5 9s7.2 8.7 7.5 9c.3.3 3.5 4.1 7 8.5 3.6 4.4 6.7 8.2 7 8.5.3.3 2.3 2.7 4.5 5.5 2.1 2.7 4.2 5.2 4.5 5.5.3.3 2.5 3 5 6s5.5 6.6 6.7 8c1.7 2 8.1 9.7 20.6 25 .7.8 5.5 6.7 10.7 13 5.1 6.3 9.6 11.7 9.9 12 .4.3 2.9 3.3 5.6 6.7l5 6.2 2.2-2.7c3.3-4 2.5-3 21.3-27 9.6-12.3 18.4-23.6 19.5-25.1 2.7-3.6 36.5-47.1 38.6-49.6 1-1.1 13.9-17.8 28.9-37 15-19.3 28.3-36.4 29.6-38 2.6-3.4 13.6-17.4 17.4-22.4 3.7-4.8 11.9-15.2 14.4-18.3 1.1-1.5 4.6-5.9 7.6-9.8 3-3.9 13.1-16.9 22.4-28.8 9.3-11.9 19.2-24.6 22-28.2 2.7-3.6 8.4-10.8 12.5-16.1 4.2-5.3 8.7-11.1 10.1-12.9 2.7-3.6 26.8-34.5 31.2-40.1 1.5-1.9 11.1-14.2 21.3-27.4 10.3-13.2 19.7-25.4 21-27 1.3-1.7 5.4-6.8 9.1-11.5 3.6-4.7 7.7-9.9 9-11.5 1.3-1.7 12.3-15.8 24.5-31.5s23.1-29.7 24.3-31.2c1.2-1.4 3.2-4.1 4.6-5.9 4.4-5.7 29-37.3 30.3-38.9 1.9-2.3 36.1-46.2 45.2-58 4.5-5.8 8.9-11.4 9.8-12.5 1.9-2.4 17-21.8 20.1-25.9 1.1-1.5 3.3-4.2 4.7-6 1.4-1.7 4.7-6 7.5-9.5 7.6-10 10.9-14.1 28.3-36.5 9-11.5 17.2-22.7 18.2-25 3.6-8 1.8-14.9-4.8-18.2-3.6-1.8-8.2-1.9-112.3-2-59.7-.1-113.8-.3-120.3-.5s-11.9-.3-12-.3zM343.6 32.7c2.1 2.7 9.1 11.1 15.4 18.9 6.3 7.7 12.9 15.8 14.5 17.9 1.7 2.1 3.5 4.3 4 4.9.6.6 3 3.6 5.5 6.6 2.5 3 4.7 5.7 5 6 .3.3 2.1 2.5 4 5s4.5 5.6 5.7 7c1.9 2.3 40.1 48.8 48.3 59 6.1 7.5 15 18.4 16.8 20.5 1 1.1 7.8 9.4 15.2 18.5 7.4 9.1 14.8 18.1 16.4 20.1 1.7 2 3.9 4.5 4.8 5.7 6.1 7.5 30.4 37.3 34.8 42.6 1.9 2.3 5.1 6.2 7 8.6 5.7 7 19 23.3 21.3 26 2.1 2.4 4.6 5.4 11 13.5 3.1 3.8 12.8 15.6 23.5 28.5 2.9 3.6 5.9 7.2 6.5 8 1.9 2.3 110.7 135.2 112.5 137.5 1 1.1 9.8 11.9 19.7 24 9.8 12.1 18.2 22.2 18.5 22.5.3.3 4.3 5.2 9 11 4.6 5.8 8.7 10.7 9 11 .3.3 2.1 2.5 4 5s4 4.9 4.6 5.5c.6.5 4.9 5.7 9.5 11.5s8.6 10.7 8.9 11c.5.4 8.8 10.6 12.3 15 4.1 5.1 28.3 34.7 29.2 35.6.5.6 4.4 5.3 8.5 10.4 6.2 7.7 37.5 45.9 49.6 60.5 1.8 2.2 5.6 7 8.6 10.6 15.1 18.8 54.3 66.5 55.1 67.1.6.3-4.8 8-11.8 17-7.1 8.9-14.2 18.1-15.9 20.3-1.7 2.2-3.5 4.5-4.1 5.1-.5.6-3.8 4.7-7.1 9-5.8 7.4-34.6 44.3-39.8 50.9-1.3 1.6-7 8.8-12.6 16-5.6 7.1-11.2 14.3-12.6 16-1.3 1.6-6.2 7.9-11 14-4.7 6-9.6 12.3-10.9 14-10.7 13.5-46.5 59-49.5 63-3.8 5-33.9 43.2-38.5 49-1.4 1.6-4.7 5.9-7.6 9.5-2.8 3.6-6.3 8.1-7.9 10-1.5 1.9-6.1 7.8-10.2 13-8.6 11-64.5 82-83 105.5-7 8.8-28.3 35.8-47.4 60-33.8 42.9-63.4 80.3-67.8 85.7-1.1 1.4-6.6 8.3-12.1 15.3-5.5 6.9-21 26.5-34.5 43.4s-25.6 32.3-27 34.1c-1.4 1.8-3.3 4.2-4.3 5.4-1 1.1-3.1 3.6-4.5 5.5-1.5 1.9-4.2 5.2-6 7.5-5.3 6.5-5.2 6.4-16.1 20.1-5.7 7.1-11.2 14.1-12.3 15.3-1.1 1.3-11 13.7-22.1 27.5-11.1 13.9-21 26.1-21.9 27.2-.9 1.1-9.7 11.9-19.5 24.1-9.8 12.1-19.2 23.8-21 26-1.8 2.1-15.4 19-30.3 37.4-15 18.4-28.1 34.5-29.1 35.8-1.1 1.3-7.7 9.4-14.6 18-7 8.6-14 17.3-15.7 19.2-1.7 2-4.4 5.3-6.1 7.4-1.6 2.1-4.2 5.2-5.6 7-2.3 2.7-26.1 31.8-35.2 43-1.8 2.2-6.7 8.2-11.1 13.5-4.3 5.3-9.3 11.3-11 13.5-5.9 7.4-13.1 16.1-13.6 16.6-.3.3-2.3 2.7-4.5 5.5-2.1 2.7-4.2 5.2-4.5 5.5-.3.3-3.3 3.9-6.5 8-3.3 4.1-6.3 7.7-6.6 8-.3.3-8.8 10.6-18.9 23-10.1 12.4-18.6 22.7-18.9 23-.3.3-3.3 3.9-6.6 8s-6.4 8-7 8.6c-.5.6-6.8 8.3-14 17-20.4 24.8-41 49.9-51.3 62.2-5.2 6.2-9.1 11.6-8.8 11.9 1.4 1.5 210.9.5 248.1-1.1 19.4-.9 32.7-1.7 49-3.2 28.8-2.5 49.3-5.7 71-11 36.3-8.9 57.3-20.1 86-45.7 11.3-10.1 51.9-50.8 68.5-68.6 17.9-19.2 17.7-19 26.5-28.6 4.4-4.9 8.5-9.3 9-9.9.6-.6 4.8-5.4 9.5-10.6 4.7-5.2 8.7-9.7 9-10 .3-.3 3.2-3.6 6.5-7.4 3.3-3.8 7.4-8.3 9-10.1 3.1-3.3 4.4-4.8 15.5-17.5 3.6-4.1 6.8-7.7 7.1-8 .3-.3 6.7-7.7 14.3-16.5 7.6-8.8 16.2-18.7 19-21.9 5.7-6.6 6.4-7.3 12.2-14.2 2.3-2.7 11.5-13.5 20.5-24s18.3-21.3 20.5-24c13-15.5 33.8-40 34.3-40.4.4-.3 2.2-2.5 4.1-5 1.9-2.4 4.2-5.2 5-6 .8-.9 3.1-3.6 5-6s4-4.8 4.5-5.4c1.4-1.4 70.4-84.4 89-107.1 7.7-9.3 14.8-17.9 15.7-19 .9-1.1 12.3-15.1 25.3-31 13.1-16 24.7-30.1 25.9-31.5 1.1-1.4 3.7-4.5 5.6-7 1.9-2.5 3.7-4.7 4.1-5 .3-.3 5.5-6.6 11.5-14 5.9-7.4 11-13.7 11.3-14 .4-.3 6.2-7.5 13.1-16 6.8-8.5 14.7-18.2 17.5-21.5 2.7-3.4 6.4-7.8 8-9.9 3.5-4.5 16.9-21.2 19.3-24.1 1-1.1 3.5-4.3 5.7-7 2.2-2.8 4.2-5.2 4.5-5.5.3-.3 4.8-5.9 10.1-12.5s17.4-21.7 27-33.5c9.5-11.8 17.7-22 18.1-22.5.5-.6 3.2-4 6.1-7.6 2.8-3.6 6.6-8.3 8.4-10.5 1.7-2.1 16.5-20.6 32.7-40.9 16.3-20.4 30.2-37.7 30.9-38.5 1.4-1.7 32-40.3 55.6-70 9-11.3 17.6-22.1 19.1-24 1.6-1.9 10.3-13 19.5-24.5 9.1-11.6 17.8-22.4 19.1-24 1.4-1.7 3.3-4.1 4.2-5.3.9-1.3 4.4-5.8 7.8-10 16-20.1 27.1-34.2 28.9-36.6 1.1-1.5 2.8-3.7 3.9-4.9 1-1.2 3.9-4.9 6.4-8.2 2.6-3.3 5.2-6.7 5.9-7.5 3.7-4.6 18.1-22.9 19.8-25.2 3.7-4.9 30.9-39.3 32.2-40.6.7-.7 1.3-1.6 1.3-2 0-.4 1.3-2.1 2.8-3.8 1.5-1.7 3.8-4.6 5.2-6.4 1.4-1.8 3-3.8 3.5-4.4 2.4-2.5 25.7-32.9 26.1-34 .2-.6-2.9-5.2-6.8-10.3-4-5-8.6-10.8-10.3-12.9-3.4-4.5-48.3-61.2-50.2-63.4-.6-.8-7.1-8.9-14.3-18-7.2-9.1-14.4-18.1-15.9-20-1.6-1.9-11.5-14.3-22-27.5s-19.7-24.7-20.5-25.6c-.7-.9-4.9-6.1-9.2-11.5-4.3-5.4-8.6-10.8-9.5-11.9-1-1.1-7.5-9.2-14.5-18-7.1-8.8-13.6-16.9-14.6-18-.9-1.1-4.7-5.8-8.5-10.5-10-12.6-38.6-48-40.3-50-.8-1-6.9-8.4-13.5-16.5s-21.6-26.5-33.4-40.9c-11.7-14.4-22.8-27.8-24.5-30-1.7-2.1-3.6-4.3-4.1-5-.6-.6-2.8-3.4-5.1-6.1-2.2-2.8-11.9-14.5-21.5-26-9.5-11.6-18-21.8-18.9-22.9-.8-1-1.9-2.3-2.5-3-.5-.6-11.1-13.3-23.5-28.1-12.4-14.9-22.9-27.5-23.5-28.1-1.1-1.2-4.1-4.8-21.1-24.9-6.5-7.7-12.1-14.2-12.4-14.5-.3-.3-4.3-5-9-10.5s-8.9-10.5-9.5-11.1c-.5-.6-3-3.5-5.5-6.4-2.5-2.9-5-5.8-5.5-6.4-1.2-1.2-15.6-17.8-18.9-21.6-2.5-2.9-34.5-39-36.1-40.6-.5-.6-4.8-5.3-9.5-10.4-27.9-30.5-51.1-53.8-70.1-70.6-5.4-4.8-13.7-10.3-19.9-13.1-15.5-7.2-21.4-9.2-36.5-12.8-23-5.4-32.6-6-84.5-5.8-98.2.4-109.2.3-197.5-1.2-34.6-.6-57.1-1-102.4-2l-23.3-.5 3.8 4.7zM832.5 39c1 1.1 2 2 2.3 2 .3 0-.3-.9-1.3-2s-2-2-2.3-2c-.3 0 .3.9 1.3 2zM837.6 45.1c3.8 4.7 8.9 10.8 16 19.5 3.3 3.9 7.3 8.8 8.9 10.9 1.7 2.1 3.5 4.3 4 4.9 1.1 1.2 22.8 27.4 28.5 34.5 1.9 2.4 4 4.8 4.5 5.5 1.1 1.2 15.5 18.7 18.2 22.1.9 1.1 2.8 3.4 4.2 5.1 1.4 1.7 4.2 5 6.2 7.5 2 2.4 12.4 15 23 27.9 10.7 12.9 19.9 24.2 20.6 25 .7.8 7.2 8.7 14.5 17.6 7.3 8.8 17 20.5 21.4 26 10 12.1 70.9 86.1 73.2 88.9.9 1.1 3.5 4.2 5.7 7 2.2 2.7 4.7 5.7 5.5 6.6.8.9 2.9 3.3 4.6 5.5 4.4 5.5 47.1 57.4 49.6 60.3 1.1 1.3 8.4 10.1 16.1 19.5 21.2 25.8 23.7 28.9 26.1 31.6 1.1 1.4 7.9 9.6 15 18.2 7 8.7 13 15.8 13.3 15.8.5 0 8.3-8.4 11.2-12.2 1.9-2.4 1.9-2.4-1.2-5.9-1.8-1.9-5.7-6.3-8.7-9.9-3-3.6-6.2-7.2-7-8-.8-.8-4.4-4.9-8-9-3.5-4.1-7.7-8.9-9.1-10.5-5.7-6.3-14-15.7-20.2-22.9-1-1.2-2.9-3.2-4.1-4.6-1.2-1.4-5.6-6.4-9.6-11-4.1-4.7-7.9-9-8.5-9.6-.5-.6-3-3.4-5.5-6.4-2.5-2.9-5.2-6-6.1-6.9-1.5-1.5-24.4-27.6-36.9-42-3-3.5-6-6.9-6.6-7.5-1.7-1.8-10.7-12.1-12.9-14.7-1.2-1.3-4.3-4.9-6.9-7.9-2.7-3-7.7-8.7-11.1-12.5-5.7-6.5-20.3-23-26.4-30-7.6-8.8-16.7-19.1-17.1-19.5-.3-.3-3.4-3.9-7-8-3.5-4.1-7.1-8.2-8-9.1-.8-.8-4-4.4-7-7.9-7.2-8.3-31.9-36.4-36.5-41.6-1.1-1.2-4.2-4.8-7-8-2.7-3.2-6.2-7.1-7.6-8.6-1.4-1.5-4.6-5.1-7.1-8-7.2-8.3-18.4-21-21.3-24.2-.5-.7-3.9-4.5-7.5-8.6-3.5-4.1-6.7-7.7-7-8-.3-.3-6.8-7.7-14.4-16.5-7.7-8.8-14.4-16.5-15-17-.6-.6-5.4-6-10.6-12-5.2-6.1-9.9-11.5-10.5-12.1-.5-.6-3.9-4.4-7.5-8.5-3.6-4-8-8.9-9.9-10.9l-3.4-3.5 2.9 3.6zM1420.9 804.3c-1.3 1.9-3.8 5.1-5.6 7.3-1.8 2.1-8.9 11.1-15.8 19.9-7 8.8-13.4 16.9-14.3 18-.9 1.1-4.5 5.6-8 10-3.4 4.4-6.8 8.7-7.6 9.6-.7.8-4.6 5.8-8.6 11-4.1 5.2-7.7 9.6-8 9.9-.3.3-2.8 3.4-5.5 7-2.8 3.6-5.3 6.7-5.6 7-.4.4-12.2 15.2-34.7 43.9-1.5 1.8-3.4 4.1-4.2 5.1-1.6 1.9-4.7 5.8-12.3 15.4-2.6 3.4-5.6 7.1-6.6 8.3-1 1.2-3.3 4.1-5.2 6.5-5.9 7.6-46.1 58.2-47.6 59.9-1.1 1.4-.9 2.1 1.7 5.5 1.7 2.1 4.2 5.2 5.5 6.9 2.3 3 24.1 30.5 38 48 3.9 4.9 10.7 13.5 15 19 4.3 5.5 8.1 10.2 8.4 10.5.4.3 1.9 2.3 3.6 4.5 1.6 2.2 3.2 4.2 3.5 4.5.3.3 3 3.6 6 7.5 3 3.8 6 7.7 6.7 8.5 1.3 1.4 36 45 41.3 51.9 1.4 1.8 3.3 4.2 4.4 5.4 1 1.2 3 3.8 4.5 5.7 1.4 1.9 2.8 3.7 3.1 4 .4.3 3.3 3.9 6.5 8 3.3 4.1 6.4 8 7 8.7 1.1 1.4 1.7 2.1 6.5 8.3 1.9 2.5 4.3 5.4 5.2 6.5.9 1.1 7.6 9.4 14.8 18.5 7.2 9.1 13.9 17.4 14.8 18.5.9 1.1 13.4 16.7 27.7 34.5 14.2 17.9 26.2 32.7 26.5 33 .3.3 9.7 11.9 20.8 25.9 11.2 13.9 21.1 26.2 22 27.4 1 1.1 3.1 3.6 4.8 5.6 2.3 2.8 17.2 21.1 26.1 32.1 3.2 4 24.1 29.2 28.2 34 47.6 56 71 75.5 103.3 86.3 22.2 7.5 13.6 7.1 172.8 7.2 157.3 0 148.5.4 154-6.3 4.8-5.8 3.3-12.7-5.4-24.2-2.2-3-4.3-5.7-4.6-6-.3-.3-3.5-4.3-7-9-3.6-4.6-7.3-9.4-8.2-10.5-.9-1.1-12.7-16.2-26.3-33.5-34.3-44-39.8-51-41.5-53-.8-1-2.4-3.1-3.5-4.6-1.1-1.5-4.9-6.3-8.4-10.8-17.3-22.1-38.4-49.1-41.1-52.6-3.5-4.5-32.8-42-34.8-44.5-1-1.2-3.9-5-6.7-8.5-2.7-3.6-5.2-6.7-5.5-7-.3-.3-3.2-4.1-6.5-8.4-3.3-4.3-6.4-8.4-7-9-.6-.6-2.4-2.9-4-5.1-1.7-2.2-5.7-7.4-9-11.5-6.6-8.3-7.6-9.7-19.5-25-4.5-5.8-8.9-11.4-9.8-12.5-.9-1.1-4.6-5.9-8.2-10.5-3.5-4.7-6.7-8.7-7-9-.3-.3-11.6-14.7-25.1-32-25-32.2-63.4-81.3-65.6-84-1.8-2.2-23.5-30.1-25.8-33.1-1.1-1.5-8.5-10.9-16.4-21-8-10.1-19.9-25.4-26.5-33.9-6.6-8.5-12.6-16.2-13.3-17-.7-.8-4.7-6-9-11.5s-15.1-19.2-23.8-30.3c-8.8-11.2-16.9-21.6-18-23.1-1.1-1.5-3.3-4.5-5-6.6-1.6-2.1-5.7-7.2-9-11.4s-6.2-7.8-6.5-8.1c-.3-.3-1.9-2.3-3.5-4.5s-3.5-4.7-4.2-5.5c-1.6-2-20.6-26.3-36.3-46.5-6.8-8.8-12.7-16.2-13-16.5-.3-.3-2.7-3.4-5.4-7-6.9-9-19.7-25-20-25-.2 0-1.4 1.5-2.7 3.3zM1218.5 1057.3c-.5.7-2.8 3.5-5 6.2-6.2 7.6-19.1 23.4-41.4 51-11.1 13.7-21.9 27-23.9 29.4-2 2.4-4.9 6-6.5 8-6.6 8.4-8.4 10.6-11.3 14-1.7 2-5.7 7-9 11.1-3.2 4.1-6.1 7.7-6.4 8-.3.3-2.4 2.7-4.5 5.5-2.2 2.7-4.6 5.6-5.3 6.3-.7.8-2.5 3-4 5-1.5 2.1-2.9 3.9-3.2 4.2-.3.3-5.5 6.6-11.5 14s-13.8 17.1-17.4 21.5c-7 8.4-18.3 22.5-31.6 39-4.4 5.5-8.2 10.2-8.5 10.5-.3.3-2.3 2.7-4.5 5.5-2.1 2.7-4.2 5.2-4.5 5.5-.3.3-3.2 3.9-6.5 8s-6.2 7.7-6.5 8c-.3.3-2.1 2.5-4 5s-3.7 4.7-4 5c-.4.3-7.3 8.8-15.5 19s-17.6 21.8-20.9 25.9c-10.9 13.1-17 20.7-20.1 24.7-1.6 2.1-4.2 5.2-5.6 6.9-1.4 1.6-10.4 12.7-19.9 24.5-15.7 19.4-21.4 26.5-38.9 48-2.9 3.6-8.7 10.8-12.9 16-4.2 5.2-7.9 9.7-8.2 10-.3.3-3.2 3.9-6.5 8-3.4 4.1-9.9 12.2-14.6 18-18.7 23-28.6 35.2-41.7 51.5-7.5 9.3-13.9 17.2-14.2 17.5-.4.3-4.2 5-8.6 10.5-4.3 5.5-8.1 10.2-8.5 10.5-.3.3-2.5 3-5 6.1-4.5 5.7-14.8 18.4-39.2 48.4-15.8 19.4-13.7 16.8-24.7 30.5-4.6 5.8-8.9 11-9.5 11.6-.5.6-2.2 2.6-3.7 4.5-1.4 1.9-3.6 4.5-4.7 5.9-3.2 3.8-3 3.7-14.2 17.6-5.8 7.1-11.3 13.9-12.2 15-.9 1-4 4.8-6.8 8.4-2.8 3.6-5.5 6.7-5.8 7-.4.3-1.8 2.1-3.1 4s-2.7 3.7-3.1 4c-.7.5-17.9 21.6-31.4 38.5-4.4 5.5-8.4 10.5-9 11.1-2 2.3-17.5 21.5-32.3 40-9.6 12-8.6 11.6 1.8-.6 2.5-2.9 7.5-8.7 11.1-12.9 3.6-4.2 7.6-8.9 9-10.5 1.3-1.7 4-4.8 6-7 2-2.3 4.4-5.2 5.5-6.4 2.9-3.6 5.3-6.4 8.2-9.7 1.5-1.7 5.4-6.2 8.7-10 3.3-3.9 6.2-7.2 6.5-7.5.3-.3 4.3-5 9-10.5s8.7-10.2 9-10.5c.3-.3 3-3.4 6-7 9.6-11.3 23.3-27.3 27.4-32 1.2-1.4 4.8-5.7 8.1-9.5 3.3-3.9 6.2-7.2 6.5-7.5.3-.3 3-3.4 6-7s5.7-6.7 6-7c.3-.3 4.3-5 9-10.5s8.7-10.2 9-10.5c.3-.3 8.6-10 18.5-21.5 9.9-11.6 19.2-22.4 20.6-24 1.5-1.7 6.8-8 12-14 5.1-6.1 9.6-11.2 9.9-11.5.3-.3 2.9-3.4 5.9-7 3-3.6 5.9-7 6.5-7.5.6-.6 3.3-3.7 6.1-7 2.7-3.3 6.2-7.4 7.6-9 1.5-1.7 7.1-8.2 12.5-14.5 5.5-6.3 10.8-12.6 12-14 1.2-1.4 5.7-6.6 9.9-11.5 4.3-5 9.7-11.3 12-14 6.7-7.8 19.3-22.4 25-29 2.9-3.3 6.5-7.6 8.1-9.5 1.6-1.9 3.1-3.7 3.4-4 .3-.3 5.9-6.8 12.5-14.5s13-15.1 14.1-16.5c1.2-1.4 8.2-9.5 15.4-18 7.3-8.5 13.8-15.9 14.4-16.6.6-.6 2.7-3.1 4.8-5.5 2-2.4 4.6-5.5 5.8-6.9 1.2-1.4 4-4.7 6.3-7.4 2.3-2.8 5.1-6 6.2-7.2 1.1-1.2 3.1-3.5 4.4-5 1.3-1.6 3.8-4.5 5.5-6.4 1.7-2 5.1-6 7.6-9 2.5-2.9 5-5.8 5.5-6.4 1.8-2 18.1-21 20.1-23.5 1-1.3 2.8-3.3 3.9-4.5 1.1-1.2 4.5-5 7.5-8.6 3-3.6 6.5-7.6 7.7-9 4.9-5.7 6.7-7.7 10.6-12.4 2.3-2.7 4.7-5.4 5.2-6 .6-.6 6.2-7.2 12.5-14.6 6.3-7.4 12.7-14.9 14.1-16.5 2.8-3.1 16.6-19.2 20.3-23.5 7.4-8.8 32.1-37.6 32.6-38 .3-.3 3-3.4 6-7s5.9-7 6.5-7.6c.5-.6 2.9-3.3 5.2-6 2.3-2.7 5.1-6 6.3-7.4 1.2-1.4 3.8-4.5 5.8-6.9 2.1-2.4 4.6-5.3 5.7-6.6 2.9-3.1 6.3-7.1 12-14 2.8-3.3 5.5-6.5 6.1-7 .6-.6 3.6-4 6.7-7.7 3-3.6 6.6-7.9 8-9.5 1.3-1.5 5.9-6.9 10.2-11.8 4.2-5 8.9-10.4 10.4-12 1.4-1.7 5.1-5.9 8.1-9.5 3-3.6 5.7-6.7 6-7 .3-.3 3-3.4 6-7s7-8.1 8.7-10c1.8-1.9 3.3-3.9 3.3-4.3 0-.6-19-23.8-19.4-23.7-.1.1-.5.6-1.1 1.3zM545.4 1887.2l-1.9 2.3 2.3-1.9c2.1-1.8 2.7-2.6 1.9-2.6-.2 0-1.2 1-2.3 2.2z"/></svg>